Coordinates
version=1
nRows=13
nColumns=40
inDegrees=yes

Units are S.I. units (second, meters, Newtons, ...)
Angles are in degrees.

endheader
time	pelvis_tilt	pelvis_list	pelvis_rotation	pelvis_tx	pelvis_ty	pelvis_tz	hip_flexion_r	hip_adduction_r	hip_rotation_r	knee_angle_r	knee_angle_r_beta	ankle_angle_r	subtalar_angle_r	mtp_angle_r	hip_flexion_l	hip_adduction_l	hip_rotation_l	knee_angle_l	knee_angle_l_beta	ankle_angle_l	subtalar_angle_l	mtp_angle_l	lumbar_extension	lumbar_bending	lumbar_rotation	arm_flex_r	arm_add_r	arm_rot_r	elbow_flex_r	pro_sup_r	wrist_flex_r	wrist_dev_r	arm_flex_l	arm_add_l	arm_rot_l	elbow_flex_l	pro_sup_l	wrist_flex_l	wrist_dev_l
     57.06342857	     -2.70827442	     -3.35066872	      5.29049275	      1.15487009	      0.93406659	      0.48865637	      6.85455033	      2.26979844	    -14.90572191	     13.68100943	     13.68100943	     11.54867918	      1.76449515	     -6.37413230	     30.32599903	    -11.03757560	     -2.27178563	     37.43510157	     37.43510157	      9.63567423	    -17.55052820	     12.12739571	     -9.75608072	      5.68650444	      2.78221431	     26.70365795	    -19.44508056	     -3.75222271	     74.40598066	     44.90526336	      0.00000000	      0.00000000	     -0.40878479	     -5.97164964	    -13.52555914	     25.65630490	     46.31323009	      0.00000000	      0.00000000
     57.07685714	     -2.85820885	     -3.44845073	      5.57980906	      1.15330507	      0.93365032	      0.48860464	      6.50252509	      2.41870059	    -15.31762053	     13.21639165	     13.21639165	     11.54982693	      2.15114737	     -6.88596367	     30.39674557	    -10.75850464	     -2.28409342	     33.78798638	     33.78798638	      8.26543517	    -16.97399286	     10.19300096	     -9.81866110	      5.79978725	      3.21460358	     27.47608694	    -20.05535865	     -4.17398255	     78.38392297	     44.82487982	      0.00000000	      0.00000000	     -0.91383887	     -5.90376197	    -12.83379639	     25.17369673	     46.18449264	      0.00000000	      0.00000000
     57.09028571	     -3.06431765	     -3.47891411	      5.82165269	      1.15170870	      0.93320562	      0.48847015	      6.28695324	      2.49807428	    -15.46255115	     12.90224635	     12.90224635	     11.69457259	      2.15578866	     -6.93693871	     30.53360316	    -10.39610309	     -2.29371899	     30.42071412	     30.42071412	      7.74921280	    -15.74820470	     10.55001305	     -9.72797073	      5.78466764	      3.11562007	     29.16709440	    -19.92763636	     -4.37030825	     79.94630485	     44.79277529	      0.00000000	      0.00000000	     -1.65187315	     -5.86401021	    -12.67538347	     24.75114227	     46.14485691	      0.00000000	      0.00000000
     57.10371429	     -3.22996710	     -3.56981930	      6.06470159	      1.15018868	      0.93267163	      0.48821686	      6.04822016	      2.62325773	    -15.67138936	     12.63437247	     12.63437247	     11.85118895	      2.28687312	     -7.02780210	     30.64711765	    -10.09670030	     -2.25347064	     27.30483896	     27.30483896	      7.20059466	    -14.20856226	     10.63851244	     -9.71072109	      5.83522086	      2.99963034	     30.73168461	    -19.81534593	     -4.44808001	     81.86297804	     44.74532806	      0.00000000	      0.00000000	     -2.36859372	     -5.81401336	    -12.47657717	     24.43103397	     46.09677743	      0.00000000	      0.00000000
     57.11714286	     -3.33957503	     -3.72814921	      6.29541312	      1.14884091	      0.93205784	      0.48778923	      5.75305600	      2.79476850	    -16.06747709	     12.39003836	     12.39003836	     12.03743452	      2.67598421	     -7.22495260	     30.63372667	     -9.89001705	     -2.28273450	     24.31139785	     24.31139785	      5.76226967	    -12.64897819	      8.27424115	     -9.80692118	      6.02300787	      3.49293643	     31.37068913	    -20.45401449	     -4.72589674	     85.65562056	     44.68361156	      0.00000000	      0.00000000	     -2.95874832	     -5.84444730	    -10.82371899	     24.65067184	     45.78852732	      0.00000000	      0.00000000
     57.13057143	     -3.48570207	     -3.80384113	      6.49178353	      1.14753490	      0.93149029	      0.48728722	      5.54460879	      2.88102021	    -16.19293988	     12.24881722	     12.24881722	     12.26918258	      2.69986759	     -7.28206615	     30.71724095	     -9.60105540	     -2.30916947	     21.85664229	     21.85664229	      5.33393155	    -10.76992256	      8.50808989	     -9.75889887	      6.05340709	      3.36089191	     32.89080185	    -20.18722467	     -4.83084466	     87.04104411	     44.65589490	      0.00000000	      0.00000000	     -3.57924258	     -5.80703699	    -10.54453270	     24.34511109	     45.73057667	      0.00000000	      0.00000000
     57.14400000	     -3.71414719	     -4.02041443	      6.69972394	      1.14623686	      0.93068234	      0.48662858	      5.47595138	      3.08786835	    -16.37933288	     12.16704888	     12.16704888	     12.47644278	      2.71550675	     -7.34145979	     31.04592940	     -9.42014780	     -2.17197907	     19.98537748	     19.98537748	      4.92963778	     -9.16632729	      8.70191803	     -9.59168516	      6.27742242	      3.40819757	     34.34445044	    -20.23978458	     -4.97109482	     88.14926574	     44.63440128	      0.00000000	      0.00000000	     -4.06257506	     -5.67027311	    -10.39591935	     24.17459490	     45.69567277	      0.00000000	      0.00000000
     57.15742857	     -3.68163239	     -3.98947571	      6.84510383	      1.14543288	      0.93037727	      0.48589175	      5.01395890	      3.06112600	    -16.53877558	     12.01539802	     12.01539802	     12.79238583	      2.97214512	     -7.29340555	     30.89044276	     -9.16366157	     -2.67561125	     18.35496783	     18.35496783	      4.58833467	     -7.05397269	      8.32018751	     -9.78430677	      6.18428410	      3.11418491	     35.41937861	    -19.72806771	     -4.78344677	     90.42971320	     44.57115020	      0.00000000	      0.00000000	     -4.77475884	     -5.68716667	     -9.93500989	     24.08473163	     45.60060145	      0.00000000	      0.00000000
     57.17085714	     -3.74560438	     -4.15401551	      6.98669302	      1.14473436	      0.92973328	      0.48504345	      4.73929663	      3.20304359	    -16.76987375	     12.01213214	     12.01213214	     13.32606987	      3.30701787	     -6.71381668	     30.92545066	     -9.05740075	     -2.98249079	     17.18301134	     17.18301134	      3.58162399	     -5.71148998	      6.32501364	     -9.75488346	      6.35104793	      3.58550029	     35.98333917	    -20.01727127	     -5.17756127	     92.69619232	     44.69842477	      0.00000000	      0.00000000	     -5.66660361	     -6.36981968	     -3.49590905	     25.17374524	     44.63365861	      0.00000000	      0.00000000
     57.18428571	     -3.80044047	     -4.19596111	      7.08600576	      1.14420712	      0.92917756	      0.48402340	      4.42880113	      3.22062474	    -16.80920128	     11.98042707	     11.98042707	     13.63272596	      3.33925003	     -6.75413488	     30.93201940	     -8.82231714	     -3.22022098	     16.54412944	     16.54412944	      3.34719615	     -4.83638839	      6.35483480	     -9.73099395	      6.32490014	      3.49770932	     36.96521459	    -19.73677211	     -5.13045253	     93.97442281	     44.66947699	      0.00000000	      0.00000000	     -6.19790238	     -6.28212324	     -3.42152449	     25.13111296	     44.63257814	      0.00000000	      0.00000000
     57.19771429	     -3.81930737	     -4.27415497	      7.16408117	      1.14398770	      0.92857662	      0.48290788	      4.06747256	      3.27779036	    -16.86970847	     11.96557317	     11.96557317	     13.99325611	      3.43213457	     -6.71875720	     30.91056584	     -8.66412509	     -3.50483836	     16.38634127	     16.38634127	      3.10879297	     -4.34599406	      6.08854233	     -9.68750134	      6.36376893	      3.45847015	     37.69089477	    -19.46213493	     -5.06488796	     95.24628565	     44.64054944	      0.00000000	      0.00000000	     -6.65945762	     -6.21363441	     -3.33196719	     25.19295279	     44.63126671	      0.00000000	      0.00000000
     57.21114286	     -3.83661710	     -4.35238129	      7.19439601	      1.14400874	      0.92788536	      0.48170538	      3.70102269	      3.32913271	    -16.84981414	     11.97235417	     11.97235417	     14.36608475	      3.48051871	     -6.72953743	     30.83953768	     -8.51959191	     -3.74418452	     16.56493673	     16.56493673	      2.87226465	     -4.42569191	      5.91525505	     -9.59298196	      6.37608097	      3.54226896	     38.38015904	    -19.36773344	     -5.10171286	     95.99983681	     44.62583066	      0.00000000	      0.00000000	     -6.98054816	     -6.13400340	     -3.28463157	     25.19436039	     44.62783188	      0.00000000	      0.00000000
     57.22457143	     -3.89134916	     -4.42524061	      7.22609533	      1.14434081	      0.92711948	      0.48035863	      3.34971683	      3.36874653	    -16.82968213	     11.96547294	     11.96547294	     14.75198845	      3.45678754	     -6.81586174	     30.63979922	     -8.37390974	     -4.00955916	     16.80382215	     16.80382215	      2.65632191	     -4.62338437	      5.92529954	     -9.33826532	      6.36648552	      3.69103256	     38.60777563	    -19.30627503	     -5.10185538	     96.23584867	     44.62024374	      0.00000000	      0.00000000	     -7.24834346	     -6.09804340	     -3.28186969	     25.12742083	     44.62455575	      0.00000000	      0.00000000
